<svg width="1289" height="2583" viewBox="0 0 1289 2583" fill="none" xmlns="http://www.w3.org/2000/svg">
<path d="M421.571 1293.83C424.077 1271.45 410.789 1251.6 391.892 1249.48C372.995 1247.36 355.645 1263.79 353.139 1286.16C350.633 1308.54 363.92 1328.4 382.817 1330.51C401.714 1332.63 419.065 1316.21 421.571 1293.83Z" fill="#000004"/>
<path d="M551.017 1295.26C553.523 1272.89 540.235 1253.03 521.338 1250.91C502.441 1248.8 485.091 1265.22 482.585 1287.6C480.079 1309.98 493.366 1329.83 512.263 1331.95C531.16 1334.06 548.511 1317.64 551.017 1295.26Z" fill="#000004"/>
<path d="M454.263 1464.23C473.553 1455.24 495.763 1416.86 489.963 1399.06C481.083 1371.8 409.763 1374.08 401.143 1399.15C395.183 1416.46 420.533 1457.69 440.733 1465.02C440.293 1484.37 428.503 1499.92 414.063 1499.92V1511.92C428.323 1511.92 440.803 1502.29 447.513 1488C454.223 1502.29 466.703 1511.92 480.963 1511.92V1499.92C466.323 1499.92 454.413 1483.94 454.273 1464.23H454.263Z" fill="#000004"/>
<path d="M653.143 7.38511C699.893 0.325149 746.833 -1.68435 792.663 1.40562C837.573 4.43562 881.603 12.3752 923.513 25.0052C1006.75 50.0952 1081.93 94.085 1140.91 152.235C1196.57 207.105 1237.23 272.935 1261.78 347.895C1287.88 427.575 1294.7 514.875 1282.07 607.355C1262.66 749.435 1262.42 896.875 1263.72 1023.93C1264.08 1059.35 1260.42 1110.14 1256.55 1163.89C1250.66 1245.64 1243.99 1338.29 1250.85 1393.39C1264.37 1501.96 1254.9 1615.48 1223.47 1721.64C1198.98 1804.35 1161.08 1883.4 1110.81 1956.6C1050.57 2044.32 971.642 2124.92 876.212 2196.17C835.043 2226.9 784.343 2288.49 776.933 2360.92C772.383 2405.39 785.873 2446.82 815.943 2480.71C840.173 2508.03 877.233 2501.75 901.323 2481.42C913.333 2471.29 921.513 2458.25 924.373 2444.72C927.673 2429.09 923.793 2413.83 913.163 2400.58C897.963 2381.63 876.663 2381.84 863.493 2391.85C854.843 2398.42 849.823 2408.62 849.363 2420.55C848.953 2431.28 852.323 2442.89 859.183 2454.55C852.893 2454.97 844.213 2453.68 838.563 2445.18C828.723 2430.38 825.973 2411.97 830.833 2393.33C836.063 2373.28 849.133 2356.6 866.703 2347.59C881.253 2340.13 909.353 2341.09 932.773 2357.55C946.503 2367.19 956.723 2380.78 963.153 2397.92C970.883 2418.51 972.883 2443.76 969.113 2472.97C965.423 2501.51 950.213 2526.85 925.133 2546.22C902.283 2563.87 871.623 2576.12 838.813 2580.71C756.913 2592.18 702.823 2556.81 685.533 2516.68C665.173 2469.4 655.463 2416.84 656.683 2360.47C657.753 2310.86 667.153 2259.5 684.603 2207.8C714.253 2119.99 766.793 2036.98 815.343 2001.24C878.973 1954.4 938.173 1889.77 973.693 1828.35C1018.07 1751.6 1025.45 1682.99 995.013 1629.92C977.073 1598.64 937.613 1577.91 897.263 1577.91L897.203 1577.95C894.823 1577.95 892.443 1578.02 890.063 1578.17C855.273 1580.31 828.473 1597.79 816.553 1626.14C807.863 1646.8 812.553 1664.05 818.023 1674.89C824.033 1686.8 832.783 1694.67 836.083 1696.62L846.813 1702.95L845.083 1690.6C841.973 1668.48 847.683 1649.75 861.163 1637.89C873.393 1627.13 890.413 1623.35 906.693 1627.81C934.253 1635.36 938.393 1665.52 937.023 1689.49C932.803 1763.05 872.433 1869.1 814.023 1885.14C810.343 1784.28 765.862 1705.57 728.712 1656.89C688.733 1604.52 636.963 1561.16 590.733 1540.78C603.863 1533.7 624.813 1521.27 638.043 1507.85C643.903 1520.18 652.223 1531.56 662.863 1541.54C691.073 1568 730.543 1578.5 763.403 1568.29C796.743 1557.94 820.393 1528.01 830.003 1484.02C835.762 1457.65 832.913 1430.72 821.273 1401.7C811.053 1376.22 795.053 1351.31 779.573 1327.22C769.933 1312.21 759.963 1296.69 751.323 1280.99C747.843 1274.66 744.083 1265.28 740.103 1255.34C726.353 1221 707.543 1173.96 670.223 1175.26C654.513 1175.8 626.733 1192.26 614.013 1205.68C577.213 1182.11 538.723 1167.54 499.533 1162.35C466.973 1158.04 433.912 1160.17 401.253 1168.66C356.463 1180.31 325.223 1200.5 314.033 1208.5C300.823 1195.52 272.533 1179.98 257.093 1179.91C219.773 1179.71 202.353 1227.31 189.643 1262.05C185.963 1272.1 182.493 1281.59 179.203 1288.02C171.033 1303.96 161.533 1319.77 152.343 1335.06C137.593 1359.6 122.333 1384.99 112.883 1410.77C102.123 1440.11 100.073 1467.12 106.623 1493.31C117.553 1536.98 142.083 1566.2 175.712 1575.55C183.242 1577.64 191.083 1578.66 199.023 1578.66C226.043 1578.66 254.233 1566.89 275.413 1545.8C281.043 1540.2 285.973 1534.19 290.183 1527.87C303.183 1545.14 340.583 1562.81 357.873 1570.33C335.723 1594.53 314.913 1637.75 302.433 1686.14C288.103 1741.73 288.483 1789.24 303.373 1817.2C283.863 1878.53 281.673 1941.61 297.073 1999.81C308.413 2042.69 326.443 2094.13 365.473 2111.61C377.863 2117.15 391.283 2119.85 405.003 2119.85C433.752 2119.85 463.823 2108.01 488.413 2085.75C506.573 2069.31 519.783 2048.72 526.593 2026.21C534.113 2001.36 533.533 1974.55 524.913 1948.68C518.593 1929.71 504.083 1917.29 486.113 1915.46C469.953 1913.82 454.133 1921.29 446.753 1934.04C438.433 1948.42 442.903 1963.33 448.633 1973.85C442.333 1974.3 433.543 1973.07 427.843 1964.5C417.883 1949.53 415.663 1930.87 421.753 1913.31C428.063 1895.1 441.963 1881.28 459.883 1875.41C486.903 1866.55 527.183 1865.64 559.153 1889.64C594.453 1916.13 611.863 1967.11 609.503 2037.05C608.052 2079.92 604.323 2143.92 588.613 2204.43C572.113 2268.01 544.953 2317.45 507.883 2351.34C485.103 2372.18 457.963 2387.73 427.243 2397.58C393.473 2408.4 354.333 2412.65 310.933 2410.23C272.633 2408.09 216.233 2385.61 165.043 2290.61C129.733 2225.08 112.233 2152.1 110.913 2112.01C110.393 2096.4 111.493 2071.35 112.763 2042.33C116.003 1968.34 120.033 1876.27 103.313 1839.79C92.6031 1816.41 79.2028 1794.07 66.2428 1772.47C50.0128 1745.4 33.2233 1717.41 22.0133 1687.68C8.18328 1651.01 0.582806 1600.37 0.0328059 1541.22C-0.427192 1491.88 3.96316 1438.37 12.3932 1390.55C15.1032 1375.2 19.203 1354.2 23.943 1329.88C50.5029 1193.7 99.9427 940.206 80.0328 796.745C63.2728 675.996 73.733 559.156 111.113 449.446C143.903 353.196 197.963 263.335 267.453 189.576C324.313 129.216 390.663 80.365 459.323 48.305C526.373 16.995 592.843 2.87495 651.553 7.47495L652.233 7.52476L653.143 7.38511ZM623.801 123.835C588.951 287.684 508.307 355.615 436.402 387.423C400.206 403.434 365.975 410.404 340.048 415.644C327.266 418.227 316.035 420.475 307.895 423.271C303.815 424.672 300.018 426.368 297.05 428.637C293.978 430.987 291.445 434.242 290.842 438.609C277.492 535.41 293.981 650.831 350.428 742.274C407.075 834.04 503.82 901.345 649.753 901.345C796.4 901.345 901.881 811.096 965.638 698.244C1029.3 585.558 1052.12 449.129 1032.83 354.211L1031.79 349.135H1029.47C1029.38 349.067 1029.29 349.003 1029.2 348.943C1027.91 348.04 1026.44 347.435 1025.13 346.995C1022.49 346.108 1019.04 345.429 1015.17 344.824C1007.42 343.609 996.238 342.438 983.068 340.782C956.428 337.432 920.014 331.919 879.579 319.412C798.795 294.427 701.989 241.554 635.544 122.074L627.322 107.287L623.801 123.835Z" fill="#000004"/>
<path d="M562.743 508.46C569.14 474.732 561.236 444.906 545.088 441.843C528.94 438.78 510.663 463.64 504.265 497.369C497.868 531.097 505.772 560.923 521.92 563.986C538.068 567.048 556.345 542.189 562.743 508.46Z" fill="#000004"/>
<path d="M792.875 564.03C809.023 560.967 816.928 531.141 810.53 497.413C804.133 463.684 785.856 438.824 769.708 441.887C753.56 444.95 745.655 474.776 752.053 508.504C758.45 542.233 776.727 567.092 792.875 564.03Z" fill="#000004"/>
<path d="M598.823 693.415C598.823 716.341 617.407 734.925 640.333 734.925C663.259 734.925 681.842 716.341 681.842 693.415H693.842C693.842 722.969 669.886 746.925 640.333 746.925C610.779 746.925 586.823 722.969 586.823 693.415H598.823Z" fill="#000004"/>
</svg>
