<svg width="1406" height="1440" viewBox="0 0 1406 1440" fill="none" xmlns="http://www.w3.org/2000/svg">
<g clip-path="url(#clip0_38_67)">
<path d="M963.8 6.00977C964.439 14.6725 961.742 20.9345 959.799 27.5791L959.8 27.5801C957.296 36.1649 953.157 44.0278 948.965 51.3213L948.964 51.3223C944.669 58.7913 939.453 67.1364 931.541 72.8818C929.134 74.6336 926.574 76.063 924.318 77.3281L924.319 77.3291C916.37 81.7967 907.499 86.7955 897.583 88.9102L897.577 88.9111C894.23 89.6209 890.868 89.8998 887.563 89.9473C881.596 92.0719 873.724 94.2043 864.432 94.9678C849.606 96.1837 837.705 93.3869 827.961 89.9355C823.162 88.2358 818.815 86.3476 815.116 84.7959C811.29 83.1907 808.257 81.9902 805.565 81.3135C797.837 79.3713 788.607 80.7459 778.135 85.4961C767.692 90.2333 756.532 98.1039 745.337 108.286C740.462 112.72 735.619 117.557 730.865 122.708C729.253 124.878 727.477 126.941 725.522 128.859L725.521 128.858C725.211 129.162 724.898 129.461 724.585 129.754C709.904 146.794 696.354 166.559 685.71 186.286C672.192 211.341 666.182 234.84 661.886 257.878C664.174 253.62 666.785 249.505 669.859 245.672L669.86 245.671C679.383 233.803 692.373 225.805 704.458 218.318C716.818 210.661 728.273 203.515 736.566 193.224L753.437 172.287L745.221 197.888C740.087 213.884 732.235 234.454 726.119 249.928C719.864 265.755 711.183 281.448 698.146 293.379C685.883 304.601 669.261 312.269 652.121 311.611C647.668 330.965 641.049 350.338 628.482 369.789L627.552 371.214C601.526 410.588 560.361 440.329 518.95 468.105C502.409 479.201 485.849 489.975 470.015 500.941L468.915 503.764L468.396 502.062C444.783 518.488 422.853 535.387 405.1 554.485C403.265 556.459 401.524 558.483 399.873 560.553C401.425 559.335 403.032 558.177 404.701 557.088L405.433 556.617C416.987 549.288 430.914 544.073 444.604 543.7L443.203 549.816C439.641 565.371 427.188 583.241 416.136 593.753C405.102 604.246 391.8 606.199 378.203 605.121C370.679 633.755 371.133 666.143 373.795 698.61C375.941 724.789 379.638 752.011 381.009 774.986C382.367 797.75 381.705 818.884 374.492 834.723L374.144 835.473C345.035 896.922 313.382 931.084 285.304 964.19C257.401 997.091 232.814 1029.14 216.147 1087.11C205.855 1122.9 206.296 1147.23 208.427 1167.45C210.52 1187.31 214.73 1205.45 211.096 1226.11C211.091 1226.15 211.085 1226.2 211.077 1226.25C211.054 1226.42 211.02 1226.67 210.976 1227C210.886 1227.66 210.754 1228.62 210.583 1229.85C210.24 1232.32 209.739 1235.86 209.107 1240.17C208.417 1244.88 207.568 1250.52 206.597 1256.68C213.392 1247.91 220.944 1239.67 229.463 1232.4C244.661 1219.42 263.143 1209.53 283.267 1206.29L289.189 1205.34L289.059 1211.34C288.537 1235.32 276.915 1259.19 259.217 1275.13C242.504 1290.19 220.79 1298.95 198.648 1301.3C198.056 1304.17 197.456 1306.97 196.848 1309.66C194.344 1320.77 191.586 1330.86 188.691 1336.8C163.346 1388.77 138.212 1409.97 115.035 1413.89C91.8058 1417.82 73.6871 1403.86 63.7598 1393.7L63.8839 1393.58C60.1237 1389.87 57.081 1385.44 54.9962 1380.57L54.5801 1379.57C52.5724 1374.54 51.601 1369.28 51.0059 1364.33L51.0049 1364.32C47.6405 1336.05 57.6496 1317.48 65.2901 1292.05L73.9014 1301.04C85.8696 1313.54 95.4806 1329.99 94.9581 1348.44C94.5296 1363.57 89.1601 1378.71 79.46 1390.48C88.215 1397.59 99.708 1403.3 112.868 1401.07C129.591 1398.24 152.142 1382.08 177.007 1331.1C179.148 1326.71 181.635 1318.03 184.166 1306.81C186.648 1295.8 189.039 1282.96 191.128 1270.7C193.215 1258.46 194.99 1246.84 196.244 1238.29C196.871 1234.01 197.368 1230.5 197.707 1228.06C197.877 1226.84 198.006 1225.89 198.094 1225.25C198.138 1224.93 198.171 1224.68 198.193 1224.52C198.204 1224.43 198.212 1224.37 198.218 1224.33C198.221 1224.31 198.223 1224.3 198.225 1224.29C198.225 1224.28 198.225 1224.28 198.226 1224.27L198.227 1224.27L198.245 1224.13L198.27 1223.99C201.294 1206.97 198.3 1192.83 196.012 1173.39C186.952 1167.05 175.207 1159.98 170.436 1147.82L170.213 1147.24C168.449 1142.5 167.842 1137.54 167.471 1133.06L167.323 1131.17C166.191 1115.97 165.927 1100.23 168.836 1084.78C171.748 1069.31 178.049 1053.9 188.93 1041.86L192.829 1037.54L196.511 1042.05C202.461 1049.33 206.423 1058.41 208.494 1067.99C217.742 1040.56 228.903 1019.01 241.276 1000.19C234.254 997.127 228.788 990.954 225.787 984.43C221.673 975.484 221.279 965.603 221.44 956.868V956.866C221.614 947.613 222.412 938.013 225.026 928.708C227.647 919.387 232.024 910.652 235.864 902.503C239.789 894.175 243.225 886.328 244.707 878.022L246.323 868.963L253.045 875.248C271.51 892.515 282.297 915.203 278.394 940.988V940.99C277.569 946.424 276.189 951.708 274.487 956.85C274.788 956.494 275.088 956.138 275.39 955.782C303.637 922.477 334.133 889.568 362.395 829.907C368.385 817.26 369.409 798.822 368.032 775.761C367.033 759.017 364.911 741.201 362.956 722.21C337.587 702.295 319.891 672.844 314.317 641.058L314.012 639.231C312.549 630.038 312.13 619.912 315.393 610.366L316.814 606.209L321.118 607.083C331.775 609.245 338.898 614.051 345.398 622.206L346.024 623.005L346.025 623.007C351.333 629.888 355.804 637.399 359.364 645.319C361.112 608.726 369.976 573.176 395.578 545.635C414.97 524.773 439.099 506.462 464.415 489C454.058 454.133 457.051 413.379 479.703 383.856C483.387 379.053 488.05 374.004 491.558 369.738C495.302 365.184 498.437 360.75 500.44 355.834L510.07 332.189C510.07 348.729 518.085 363.377 517.019 378.932C515.82 396.473 513.53 414.733 506.574 431.642C502.106 442.504 495.77 452.352 489.794 461.755C486.168 467.46 482.67 473.015 479.613 478.682C490.314 471.51 501.098 464.426 511.708 457.31C529.415 445.433 546.67 433.444 562.532 420.736C559.003 408.34 560.448 394.611 566.567 383.249C569.675 377.479 573.939 372.348 577.673 367.716L579.236 365.761C590.28 351.769 599.232 336.141 605.712 319.542L611.422 304.916L615.221 320.15C618.164 331.951 620.205 345.092 620.533 357.938C635.853 332.13 640.535 306.3 645.19 278.258C650.197 248.104 655.161 215.528 674.269 180.113C677.043 174.971 680.01 169.821 683.141 164.71C681.835 154.416 681.035 144.059 680.742 133.684C680.632 129.864 680.568 125.551 681.338 121.232C681.993 117.537 683.214 114.063 684.348 110.982L684.351 110.976C688.837 98.8423 694.422 86.7709 702.178 75.9648C709.936 65.1555 719.997 55.5537 732.203 49.4131L734.69 48.1621L737.063 49.6172C739.267 50.9685 741.222 52.4122 742.639 54.6055C743.985 56.6893 744.553 59.0284 745.053 61.292C746.256 66.7438 745.88 72.2266 745.449 76.9443C744.969 82.1932 744.308 87.5403 743.251 92.8633C752.985 84.7556 762.945 78.1115 772.765 73.6572C776.556 71.9376 780.378 70.5215 784.196 69.4795C783.178 56.058 787.361 42.3156 795.773 31.7891C804.78 20.5195 818.443 13.1473 832.816 11.8213C834.224 11.6903 835.618 11.6184 836.894 11.5518C838.203 11.4834 839.394 11.4206 840.566 11.3115C847.223 10.6933 853.725 8.5051 859.393 4.96875L864.432 1.29785L866.981 8.43359C868.91 20.8701 865.525 32.3664 860.047 42.8037C854.369 53.6232 845.157 62.5278 834.15 67.834L834.147 67.8359C829.584 70.0299 824.818 71.5804 820.078 72.7803C820.101 72.7897 820.123 72.7992 820.146 72.8086C824.032 74.4389 827.944 76.1378 832.302 77.6816C840.873 80.7176 850.883 83.0355 863.367 82.0117L864.339 81.9258C865.396 81.8252 866.431 81.7021 867.443 81.5635C868.486 76.9181 870.839 72.8509 872.678 69.6309C874.158 67.0348 875.641 64.4387 877.123 61.8447C878.606 59.2495 880.088 56.6556 881.566 54.0625L881.568 54.0605C884.15 49.5405 886.939 44.6466 890.424 40.1689C902.071 25.2056 919.788 16.8955 935.562 9.64648C942.356 6.51664 949.738 3.13104 957.675 1.29785L963.8 -0.116211V6.00977Z" fill="black"/>
<path d="M349.745 926.568C369.984 907.221 399.624 898.345 427.162 903.395L434.549 904.749L430.449 911.042C421.426 924.892 407.088 935.739 391.212 942.564C375.331 949.391 357.526 952.362 341.293 950.042L342.707 940.143C343.951 940.32 345.209 940.46 346.479 940.567L353.2 930.183L349.745 926.568Z" fill="black"/>
<path d="M1068.44 174.438C1072.37 173.337 1076.32 173.417 1079.56 173.626L1079.56 173.627C1097.02 174.72 1113.69 180.569 1128.85 188.121C1138.99 193.17 1150.25 195.229 1162.41 196.663C1174.28 198.063 1187.44 198.886 1199.83 201.702C1231.37 208.873 1258.47 228.982 1278.89 253.184L1279.86 254.341L1279.86 254.342C1300.48 279.175 1311.1 308.549 1323.76 336.549L1313.74 341.081C1300.6 312.021 1290.78 284.715 1271.4 261.368C1251.91 237.905 1226.41 219.023 1197.39 212.428C1185.76 209.784 1173.84 209.087 1161.12 207.587C1149.08 206.167 1136.66 204.037 1125.07 198.513L1123.95 197.968C1109.56 190.801 1094.36 185.573 1078.87 184.604L1078.86 184.603C1075.88 184.412 1073.47 184.452 1071.4 185.031L1071.4 185.03C1069.73 185.498 1068.1 186.374 1065.83 187.628L1065.82 187.632C1060.34 190.654 1055.46 193.371 1051.41 196.986C1047.42 200.558 1044.6 204.868 1043.87 209.308C1042.99 214.62 1044.96 220.492 1048.24 226.658L1048.88 227.836C1062.53 252.449 1088.86 269.722 1116.89 272.348H1116.89C1130.85 273.66 1145.3 275.032 1159.44 278.374L1160.8 278.704C1166.16 280.021 1170.8 281.406 1175.68 282.279C1180.41 283.126 1184.72 283.347 1188.78 282.454C1192.11 281.718 1195.29 280.245 1199.22 278.471C1202.93 276.795 1207.33 274.849 1212.21 274.073L1212.21 274.072C1222.67 272.42 1232.7 276.484 1240.65 280.006C1258.69 287.998 1275.03 296.758 1293.04 301.194L1290.4 311.875C1271.15 307.131 1253.23 297.611 1236.19 290.063L1236.19 290.062C1228.07 286.464 1220.81 283.85 1213.93 284.937L1213.93 284.936C1210.7 285.451 1207.55 286.78 1203.75 288.498C1200.15 290.12 1195.84 292.161 1191.16 293.195L1191.15 293.196C1185.12 294.522 1179.21 294.087 1173.74 293.107C1168.41 292.153 1162.86 290.539 1158.18 289.386C1144.52 286.028 1130.4 284.666 1115.87 283.301C1083.71 280.288 1053.73 260.333 1038.54 231.832C1034.98 225.158 1031.53 216.549 1033.01 207.521C1034.28 199.822 1038.9 193.411 1044.09 188.783C1049.22 184.201 1055.21 180.919 1060.51 178.003C1062.58 176.857 1065.33 175.311 1068.44 174.439L1068.44 174.438Z" fill="black"/>
<path d="M1329.88 614.023C1330.44 620.818 1330.73 628.238 1330.96 635.029C1331.18 641.895 1331.35 648.026 1331.66 652.486H1331.66C1332.03 657.779 1332.07 663.458 1330.9 669.115L1330.9 669.116C1329.41 676.326 1326.05 682.86 1323.11 688.617L1323.11 688.622C1321.81 691.165 1320.38 693.968 1318.65 696.65V696.651C1314.61 702.928 1309.25 708.036 1304.2 712.568C1294.67 721.114 1284.63 729.011 1274.74 736.786L1274.74 736.787C1270.08 740.442 1265.12 744.353 1259.65 747.589L1259.64 747.593C1252.75 751.653 1245.33 754.493 1238.21 756.993L1238.2 756.992C1219.77 763.468 1200.94 768.592 1182.14 773.267L1182.13 773.269C1174.92 775.05 1167.24 776.899 1159.32 777.453H1159.32C1136.34 779.045 1112.94 768.97 1098.31 751.181L1098.31 751.18C1095.35 747.578 1095.26 742.88 1095.18 740.451V740.446C1094.95 733.36 1094.95 724.671 1098.16 717.208C1101.35 709.799 1107.26 704.189 1112.13 699.56L1112.67 699.053C1115.43 696.529 1118.87 694.226 1122.95 693.111C1125.72 692.354 1128.48 692.24 1130.69 692.17C1133.09 692.095 1134.85 692.067 1136.55 691.743L1136.94 691.664C1140.95 690.788 1144.49 688.274 1148.71 684.708C1152.76 681.289 1157.69 676.614 1163.54 673.808C1166.19 672.533 1168.96 671.672 1171.3 670.928C1173.76 670.146 1175.81 669.478 1177.68 668.553H1177.68C1179.8 667.507 1181.8 666.075 1184.09 664.344C1186.27 662.694 1188.82 660.686 1191.6 659.036L1192.52 658.505C1202.09 653.169 1212.85 652.424 1222.63 652.035C1233.15 651.617 1242.49 651.586 1250.89 648.425L1250.89 648.424C1253.8 647.33 1256.72 646.233 1259.63 645.136C1262.55 644.038 1265.46 642.94 1268.38 641.844H1268.38C1276.17 638.923 1283.55 636.123 1290.32 632.254C1293.4 630.491 1297.08 628.975 1300.57 627.581C1304.18 626.136 1307.64 624.797 1310.77 623.284C1313.92 621.762 1316.31 620.255 1317.88 618.684C1319.24 617.307 1319.83 616.051 1319.89 614.697L1319.9 614.425H1325.02L1329.88 614.023ZM1320.73 629.144C1318.94 630.336 1317.02 631.371 1315.12 632.288C1311.59 633.994 1307.71 635.494 1304.28 636.866C1300.72 638.288 1297.67 639.567 1295.29 640.933L1295.28 640.936C1287.71 645.267 1279.57 648.327 1271.9 651.206L1271.9 651.205C1268.98 652.299 1266.07 653.397 1263.16 654.494C1260.24 655.591 1257.33 656.689 1254.41 657.784L1254.41 657.785C1244.12 661.654 1232.8 661.638 1223.03 662.027C1212.84 662.433 1204.08 663.252 1196.7 667.634H1196.7C1194.53 668.924 1192.54 670.49 1190.12 672.318C1187.81 674.064 1185.16 676.014 1182.12 677.518L1182.11 677.517C1179.46 678.831 1176.69 679.708 1174.32 680.459C1171.84 681.248 1169.77 681.907 1167.86 682.822L1167.86 682.821C1163.51 684.915 1159.9 688.351 1155.17 692.347C1150.75 696.081 1145.38 700.241 1138.43 701.566H1138.42C1135.77 702.072 1133.06 702.1 1131.01 702.165C1128.77 702.235 1127.1 702.346 1125.59 702.758L1125.59 702.759C1123.34 703.37 1121.13 704.789 1119.03 706.79L1119.03 706.796C1113.91 711.665 1109.59 715.933 1107.34 721.161C1105.11 726.338 1104.95 732.93 1105.18 740.124H1105.18C1105.28 743.11 1105.56 744.249 1106.03 744.827L1106.03 744.829C1118.6 760.119 1138.88 768.845 1158.62 767.477C1165.56 766.991 1172.46 765.359 1179.73 763.561C1198.41 758.916 1216.89 753.881 1234.89 747.558L1234.89 747.557C1241.91 745.097 1248.55 742.517 1254.56 738.977C1259.37 736.133 1263.82 732.646 1268.56 728.922C1278.49 721.118 1288.27 713.416 1297.52 705.122H1297.52C1302.51 700.654 1306.99 696.302 1310.25 691.238C1311.66 689.041 1312.87 686.684 1314.21 684.067C1317.25 678.107 1319.93 672.762 1321.1 667.094L1321.1 667.089C1322.01 662.729 1322.03 658.091 1321.68 653.187V653.184C1321.35 648.484 1321.18 642.075 1320.96 635.36C1320.89 633.316 1320.82 631.233 1320.73 629.144Z" fill="black"/>
<path fill-rule="evenodd" clip-rule="evenodd" d="M828.403 68.0933C838.592 66.5108 848.5 67.4306 857.537 71.7056C866.572 75.9801 873.911 83.2183 879.627 92.8774C881.419 95.9068 882.586 100.001 883.475 103.928C884.436 108.172 885.324 113.437 886.158 119.553C887.828 131.806 889.361 148.093 890.778 167.72C893.614 207.009 896.021 260.258 898.069 322.596C902.165 447.304 904.832 608.804 906.568 768.663C908.304 928.537 909.11 1086.83 909.481 1205.15C909.667 1264.32 909.744 1313.49 909.775 1347.87C909.79 1365.06 909.794 1378.55 909.794 1387.75C909.794 1392.35 909.793 1395.87 909.792 1398.25C909.784 1416.82 889.793 1400.38 889.794 1387.75C889.794 1378.56 889.79 1365.07 889.775 1347.89C889.744 1313.52 889.667 1264.36 889.481 1205.22C889.175 1107.78 888.573 983.237 887.401 853.042C887.35 847.469 882.753 843.012 877.181 843.129C761.297 845.559 645.409 845.843 529.5 845.843C405 845.843 331.458 959.053 280.805 1034.08C279.008 1036.74 277.631 1038.83 276.71 1040.24C276.408 1040.7 276.156 1041.09 275.953 1041.4C255.746 1098.66 234.26 1156.3 212.291 1208.75C186.026 1271.45 158.834 1327.32 132.033 1366.39C118.655 1385.9 105 1401.78 91.1559 1412.2C77.2949 1422.62 62.0955 1428.37 46.4283 1425.02C25.8398 1420.62 12.8138 1409.76 5.9752 1395.28C-0.5781 1381.41 -0.871955 1365.43 0.992782 1351.28C2.87802 1336.98 7.12626 1323.39 10.8141 1313.52C12.6708 1308.56 14.4154 1304.45 15.7057 1301.56C16.3514 1300.12 16.8859 1298.98 17.2652 1298.18C17.4549 1297.79 17.6059 1297.47 17.7135 1297.26C17.7672 1297.15 17.8101 1297.06 17.8414 1297L17.8922 1296.9C17.8938 1296.89 17.8961 1296.89 17.8961 1296.89C17.8978 1296.88 17.9 1296.88 26.235 1301.08L17.9 1296.88C20.3855 1291.95 26.3988 1289.96 31.3307 1292.45C36.2625 1294.94 38.2458 1300.95 35.7604 1305.88C35.7576 1305.89 35.7526 1305.89 35.7467 1305.91C35.7307 1305.94 35.7035 1305.99 35.6656 1306.07C35.5895 1306.23 35.4708 1306.47 35.3141 1306.8C35.0004 1307.46 34.5359 1308.45 33.9625 1309.73C32.8142 1312.3 31.2347 1316.01 29.5484 1320.52C26.1501 1329.62 22.4366 1341.64 20.8219 1353.89C19.1866 1366.3 19.8549 1377.84 24.0602 1386.74C27.919 1394.91 35.2762 1402.01 49.9088 1405.31L50.6109 1405.46L51.3522 1405.61C59.0492 1406.98 68.1492 1404.48 79.1344 1396.21C90.4914 1387.67 102.709 1373.79 115.539 1355.08C141.152 1317.74 167.714 1263.4 193.844 1201.02C246.053 1076.39 295.584 922.041 331.82 812.958L333.048 809.282C385.54 653.23 497.93 441.744 607.188 285.085C662.186 206.227 716.916 140.49 763.309 102.746C786.344 84.0047 808.487 71.1865 828.403 68.0933ZM848.983 89.7847C844.242 87.5418 838.517 86.7619 831.472 87.856C816.919 90.1163 798.18 100.159 775.931 118.26C731.757 154.2 678.309 218.072 623.592 296.527C521.56 442.825 416.941 637.155 361.823 787.737C359.452 794.214 364.28 801.02 371.177 801.02H702.001C770.952 801.02 870.417 804.234 885.983 718.141C884.25 575.332 881.736 434.564 878.08 323.252C876.035 260.995 873.637 208.055 870.83 169.16C869.425 149.695 867.927 133.892 866.34 122.254C865.546 116.426 864.75 111.796 863.968 108.345C863.578 106.622 863.216 105.302 862.897 104.334C862.556 103.301 862.363 102.977 862.414 103.063C858.31 96.1277 853.726 92.0283 848.983 89.7847Z" fill="black"/>
<path d="M991.501 446C1002.27 446 1019 463.237 1019 484.5C1019 505.763 1002.27 523 991.501 523C980.731 523 972.001 505.763 972.001 484.5C972.001 463.237 980.731 446 991.501 446Z" fill="black"/>
<path fill-rule="evenodd" clip-rule="evenodd" d="M1069.92 179.734C1072.92 178.895 1076.1 178.914 1079.21 179.114C1095.69 180.144 1111.62 185.685 1126.4 193.045C1148.45 204.025 1174.59 201.605 1198.61 207.064C1229.14 214.004 1255.62 233.765 1275.63 257.855C1287.04 271.594 1295.26 286.717 1302.62 302.468C1346.02 349.491 1372.54 412.336 1372.54 481.374C1372.54 537.07 1355.28 588.735 1325.82 631.314C1326.12 639.565 1326.29 647.393 1326.67 652.835C1327.03 657.935 1327.04 663.095 1326 668.105C1324.67 674.545 1321.65 680.485 1318.66 686.345C1317.34 688.925 1316.02 691.504 1314.45 693.944C1310.8 699.614 1305.88 704.345 1300.86 708.845C1291.47 717.265 1281.56 725.065 1271.65 732.855C1266.95 736.545 1262.24 740.245 1257.1 743.285C1256.46 743.663 1255.81 744.026 1255.16 744.383C1390.48 919.279 1436.06 1111.66 1385.42 1250.5C1359.82 1320.69 1309.73 1376.7 1235.21 1409.02C1161.48 1441.01 1064.54 1449.53 944.744 1426.88L941.91 1426.34C910.171 1420.23 853.614 1396.96 811.155 1350.32C792.271 1329.58 776.272 1304.3 766.452 1274.09C756.298 1247.78 754.189 1220.35 755.506 1192.25C756.995 1159.5 759.399 1130.68 771.628 1109.6L771.628 1109.6C784.05 1088.2 814.809 1073.59 837.351 1088.59L837.353 1088.59C858.079 1102.39 858.998 1131.87 850.87 1153.07C827.974 1212.77 761.967 1266.58 825.944 1336.86C865.062 1379.83 917.511 1401.27 945.692 1406.7C1064.13 1429.51 1157.68 1420.86 1227.25 1390.67C1296.62 1360.58 1342.87 1308.81 1366.63 1243.65C1414.37 1112.77 1371.73 925.926 1236.6 753.099C1236.43 752.879 1236.27 752.653 1236.12 752.424C1218.04 758.753 1199.52 763.792 1180.93 768.415C1173.69 770.205 1166.4 771.945 1158.97 772.465C1137.61 773.945 1115.77 764.545 1102.17 748.005C1101.47 747.15 1101.02 746.155 1100.74 745.094C1011.14 742.437 932.765 695.106 887.118 624.651L885.569 622.26L879.94 335.842L881.714 333.216C917.422 280.367 976.219 241.731 1041.63 225.708C1039.12 220.224 1037.47 214.296 1038.44 208.415C1039.44 202.345 1043.16 196.985 1047.75 192.885C1052.34 188.785 1057.78 185.784 1063.17 182.814C1065.34 181.615 1067.53 180.404 1069.92 179.734ZM1052.96 243.606C990.532 257.243 934.17 292.968 900.061 341.83L905.451 616.134C947.814 679.894 1019.34 722.551 1100.97 725.093C1101.37 723.039 1101.94 721.054 1102.75 719.185C1105.47 712.865 1110.59 707.925 1115.58 703.175C1118.05 700.815 1120.97 698.835 1124.27 697.935C1128.55 696.765 1133.13 697.484 1137.49 696.654C1148.61 694.534 1155.5 683.215 1165.7 678.314C1170.26 676.125 1175.37 675.275 1179.9 673.035C1185.06 670.485 1189.2 666.275 1194.15 663.335C1211.32 653.135 1233.96 660.134 1252.65 653.105C1258.48 650.915 1264.31 648.714 1270.14 646.524C1277.87 643.624 1285.63 640.695 1292.8 636.595C1294.7 635.506 1296.91 634.499 1299.27 633.512C1332.61 591.807 1352.54 538.918 1352.54 481.374C1352.54 409.279 1321.25 344.491 1271.51 299.85C1260.33 295.351 1249.45 289.923 1238.42 285.035C1230.39 281.475 1221.74 278.135 1213.07 279.505C1204.96 280.795 1197.98 286.054 1189.97 287.824C1179.87 290.044 1169.53 286.515 1159.49 284.045C1145.38 280.575 1130.85 279.184 1116.38 277.824C1091.81 275.523 1068.53 262.691 1052.96 243.606Z" fill="black"/>
</g>
<defs>
<clipPath id="clip0_38_67">
<rect width="1405.52" height="1439.62" fill="white"/>
</clipPath>
</defs>
</svg>
