<svg width="189" height="164" viewBox="0 0 189 164" fill="none" xmlns="http://www.w3.org/2000/svg">
<path d="M40.2728 67.919C45.4122 83.505 41.0455 98.9455 30.5196 102.406C19.9938 105.867 7.2946 96.038 2.15525 80.452C-2.9841 64.8661 1.38254 49.4255 11.9084 45.9646C22.4343 42.5037 35.1335 52.333 40.2728 67.919Z" fill="black"/>
<path d="M148.727 67.8814C143.588 83.4674 147.954 98.9079 158.48 102.369C169.006 105.83 181.705 96.0004 186.845 80.4145C191.984 64.8285 187.617 49.388 177.092 45.9271C166.566 42.4662 153.867 52.2955 148.727 67.8814Z" fill="black"/>
<path d="M87.2422 29.5817C89.8471 47.6447 81.5789 63.7803 68.7746 65.6216C55.9703 67.4629 43.4786 54.3126 40.8737 36.2495C38.2687 18.1865 46.5369 2.05087 59.3413 0.209586C72.1456 -1.6317 84.6372 11.5186 87.2422 29.5817Z" fill="black"/>
<path d="M101.758 29.5441C99.1529 47.6071 107.421 63.7428 120.225 65.5841C133.03 67.4253 145.521 54.275 148.126 36.212C150.731 18.1489 142.463 2.01331 129.659 0.172021C116.854 -1.66926 104.363 11.4811 101.758 29.5441Z" fill="black"/>
<path d="M50.8957 90.8131C63.1299 73.5899 95.6963 59.7237 117.39 74.898C139.084 90.0723 168.034 149.855 141.195 161.347C133.772 164.525 126.515 162.637 117.39 146.409C100.505 166.657 70.5274 168.571 53.5356 156.522C35.423 143.678 34.2411 114.26 50.8957 90.8131ZM88.4612 103.007C81.8015 99.5069 73.1757 102.798 69.1949 110.358C65.2141 117.918 67.3858 126.884 74.0455 130.385C80.7052 133.886 89.3311 130.595 93.3118 123.035C97.2926 115.474 95.1208 106.508 88.4612 103.007Z" fill="black"/>
</svg>
